<svg viewBox="0 0 1496 400" xmlns="http://www.w3.org/2000/svg"><g><g><g><g><g><line x1="30" y1="378" x2="25" y2="378" style="visibility: inherit;" fill="rgb(0, 0, 0)" stroke="rgb(204, 204, 204)" stroke-width="1px"></line><line x1="30" y1="324" x2="25" y2="324" style="visibility: inherit;" fill="rgb(0, 0, 0)" stroke="rgb(204, 204, 204)" stroke-width="1px"></line><line x1="30" y1="270" x2="25" y2="270" style="visibility: inherit;" fill="rgb(0, 0, 0)" stroke="rgb(204, 204, 204)" stroke-width="1px"></line><line x1="30" y1="216" x2="25" y2="216" style="visibility: inherit;" fill="rgb(0, 0, 0)" stroke="rgb(204, 204, 204)" stroke-width="1px"></line><line x1="30" y1="162" x2="25" y2="162" style="visibility: inherit;" fill="rgb(0, 0, 0)" stroke="rgb(204, 204, 204)" stroke-width="1px"></line><line x1="30" y1="108" x2="25" y2="108" style="visibility: inherit;" fill="rgb(0, 0, 0)" stroke="rgb(204, 204, 204)" stroke-width="1px"></line><line x1="30" y1="54.00000000000002" x2="25" y2="54.00000000000002" style="visibility: inherit;" fill="rgb(0, 0, 0)" stroke="rgb(204, 204, 204)" stroke-width="1px"></line><line x1="30" y1="0" x2="25" y2="0" style="visibility: inherit;" fill="rgb(0, 0, 0)" stroke="rgb(204, 204, 204)" stroke-width="1px"></line></g><g transform="translate(20, 0)"><text x="0" y="378" dx="0em" dy="0.3em" style="text-anchor: end; visibility: hidden; font-family: Roboto, sans-serif; font-size: 12px; font-weight: 200;" fill="rgb(50, 49, 63)" stroke="none" stroke-width="1px">-5</text><text x="0" y="324" dx="0em" dy="0.3em" style="text-anchor: end; visibility: inherit; font-family: Roboto, sans-serif; font-size: 12px; font-weight: 200;" fill="rgb(50, 49, 63)" stroke="none" stroke-width="1px">0</text><text x="0" y="270" dx="0em" dy="0.3em" style="text-anchor: end; visibility: inherit; font-family: Roboto, sans-serif; font-size: 12px; font-weight: 200;" fill="rgb(50, 49, 63)" stroke="none" stroke-width="1px">5</text><text x="0" y="216" dx="0em" dy="0.3em" style="text-anchor: end; visibility: inherit; font-family: Roboto, sans-serif; font-size: 12px; font-weight: 200;" fill="rgb(50, 49, 63)" stroke="none" stroke-width="1px">10</text><text x="0" y="162" dx="0em" dy="0.3em" style="text-anchor: end; visibility: inherit; font-family: Roboto, sans-serif; font-size: 12px; font-weight: 200;" fill="rgb(50, 49, 63)" stroke="none" stroke-width="1px">15</text><text x="0" y="108" dx="0em" dy="0.3em" style="text-anchor: end; visibility: inherit; font-family: Roboto, sans-serif; font-size: 12px; font-weight: 200;" fill="rgb(50, 49, 63)" stroke="none" stroke-width="1px">20</text><text x="0" y="54.00000000000002" dx="0em" dy="0.3em" style="text-anchor: end; visibility: inherit; font-family: Roboto, sans-serif; font-size: 12px; font-weight: 200;" fill="rgb(50, 49, 63)" stroke="none" stroke-width="1px">25</text><text x="0" y="0" dx="0em" dy="0.3em" style="text-anchor: end; visibility: hidden; font-family: Roboto, sans-serif; font-size: 12px; font-weight: 200;" fill="rgb(50, 49, 63)" stroke="none" stroke-width="1px">30</text></g><line x1="30" y1="0" x2="30" y2="378" fill="rgb(0, 0, 0)" stroke="rgb(204, 204, 204)" stroke-width="1px"></line></g></g><g transform="translate(30, 0)" clip-path="url(#clip_0)"><clipPath id="clip_0"><rect width="1466" height="378"></rect></clipPath><g><g><g><line x1="0" y1="0" x2="0" y2="378" fill="rgb(0, 0, 0)" stroke="rgb(60, 60, 60)" stroke-width="1px" opacity="0.25"></line><line x1="122.16666666666666" y1="0" x2="122.16666666666666" y2="378" fill="rgb(0, 0, 0)" stroke="rgb(60, 60, 60)" stroke-width="1px" opacity="0.25"></line><line x1="244.33333333333331" y1="0" x2="244.33333333333331" y2="378" fill="rgb(0, 0, 0)" stroke="rgb(60, 60, 60)" stroke-width="1px" opacity="0.25"></line><line x1="366.5" y1="0" x2="366.5" y2="378" fill="rgb(0, 0, 0)" stroke="rgb(60, 60, 60)" stroke-width="1px" opacity="0.25"></line><line x1="488.66666666666663" y1="0" x2="488.66666666666663" y2="378" fill="rgb(0, 0, 0)" stroke="rgb(60, 60, 60)" stroke-width="1px" opacity="0.25"></line><line x1="610.8333333333334" y1="0" x2="610.8333333333334" y2="378" fill="rgb(0, 0, 0)" stroke="rgb(60, 60, 60)" stroke-width="1px" opacity="0.25"></line><line x1="733" y1="0" x2="733" y2="378" fill="rgb(0, 0, 0)" stroke="rgb(60, 60, 60)" stroke-width="1px" opacity="0.25"></line><line x1="855.1666666666667" y1="0" x2="855.1666666666667" y2="378" fill="rgb(0, 0, 0)" stroke="rgb(60, 60, 60)" stroke-width="1px" opacity="0.25"></line><line x1="977.3333333333333" y1="0" x2="977.3333333333333" y2="378" fill="rgb(0, 0, 0)" stroke="rgb(60, 60, 60)" stroke-width="1px" opacity="0.25"></line><line x1="1099.5" y1="0" x2="1099.5" y2="378" fill="rgb(0, 0, 0)" stroke="rgb(60, 60, 60)" stroke-width="1px" opacity="0.25"></line><line x1="1221.6666666666667" y1="0" x2="1221.6666666666667" y2="378" fill="rgb(0, 0, 0)" stroke="rgb(60, 60, 60)" stroke-width="1px" opacity="0.25"></line><line x1="1343.8333333333333" y1="0" x2="1343.8333333333333" y2="378" fill="rgb(0, 0, 0)" stroke="rgb(60, 60, 60)" stroke-width="1px" opacity="0.25"></line><line x1="1466" y1="0" x2="1466" y2="378" fill="rgb(0, 0, 0)" stroke="rgb(60, 60, 60)" stroke-width="1px" opacity="0.25"></line></g><g><line x1="0" y1="378" x2="1466" y2="378" fill="rgb(0, 0, 0)" stroke="rgb(60, 60, 60)" stroke-width="1px" opacity="0.25"></line><line x1="0" y1="324" x2="1466" y2="324" fill="rgb(0, 0, 0)" stroke="rgb(60, 60, 60)" stroke-width="1px" opacity="0.25"></line><line x1="0" y1="270" x2="1466" y2="270" fill="rgb(0, 0, 0)" stroke="rgb(60, 60, 60)" stroke-width="1px" opacity="0.25"></line><line x1="0" y1="216" x2="1466" y2="216" fill="rgb(0, 0, 0)" stroke="rgb(60, 60, 60)" stroke-width="1px" opacity="0.25"></line><line x1="0" y1="162" x2="1466" y2="162" fill="rgb(0, 0, 0)" stroke="rgb(60, 60, 60)" stroke-width="1px" opacity="0.25"></line><line x1="0" y1="108" x2="1466" y2="108" fill="rgb(0, 0, 0)" stroke="rgb(60, 60, 60)" stroke-width="1px" opacity="0.25"></line><line x1="0" y1="54.00000000000002" x2="1466" y2="54.00000000000002" fill="rgb(0, 0, 0)" stroke="rgb(60, 60, 60)" stroke-width="1px" opacity="0.25"></line><line x1="0" y1="0" x2="1466" y2="0" fill="rgb(0, 0, 0)" stroke="rgb(60, 60, 60)" stroke-width="1px" opacity="0.25"></line></g></g></g><g><g><line x1="0" y1="324" x2="1466" y2="324" fill="rgb(0, 0, 0)" stroke="rgb(153, 153, 153)" stroke-width="1.5px"></line></g></g><g><g><line x1="122.16666666666666" y1="0" x2="122.16666666666666" y2="378" fill="rgb(0, 0, 0)" stroke="rgb(153, 153, 153)" stroke-width="1.5px"></line></g></g><g><g><g><g><g><path stroke="rgb(51, 187, 238)" stroke-width="2px" d="M122.16666666666666,308.1067657470703L146.6,309.46657361984256L171.03333333333333,310.0097454071045L195.46666666666667,310.31554169654845L219.9,310.4607118606568L244.33333333333331,310.5100640773773L268.76666666666665,310.54171113967897L293.2,310.55694952011106L317.6333333333333,310.52883396148684L342.06666666666666,310.4894582748413L366.5,310.47034721374513L390.93333333333334,310.3959538936615L415.3666666666667,310.34712953567504L439.8,310.2995540142059L464.2333333333333,310.2027305603027L488.66666666666663,310.119686794281L513.1,310.0648165225983L537.5333333333333,309.9733540534973L561.9666666666667,309.9107860565186L586.4,309.8157302856445L610.8333333333334,309.77195405960083L635.2666666666667,309.6864448070526L659.7,309.56970434188844L684.1333333333333,309.5102249622345L708.5666666666667,309.45982990264895L733,309.36942958831787L757.4333333333334,309.2953040599823L781.8666666666667,309.23099412918094L806.3000000000001,309.1343110084534L830.7333333333333,309.0366017818451L855.1666666666667,308.98779158592225L879.6,308.8928349494934L904.0333333333334,308.81341795921327L928.4666666666666,308.76464381217954L952.9,308.6884390354156L977.3333333333333,308.6564726829529L1001.7666666666667,308.5671422481537L1026.2,308.4804768562317L1050.6333333333334,308.42359170913693L1075.0666666666666,308.3363778591156L1099.5,308.2988599777222L1123.9333333333334,308.1859278202057L1148.3666666666666,308.1632801055908L1172.8,308.0877666950226L1197.2333333333333,307.98737568855285L1221.6666666666667,307.94362649917605L1246.1,307.8741358280182L1270.5333333333333,307.7681829929352L1294.9666666666667,307.76894903182983L1319.4,307.68031640052794" style="fill: none;" fill="none"></path></g><g><path stroke="rgb(204, 51, 17)" stroke-width="2px" d="M122.16666666666666,302.9806008338928L146.6,309.3033661365509L171.03333333333333,310.8841820240021L195.46666666666667,311.85927872657777L219.9,312.5921925544739L244.33333333333331,313.15527877807614L268.76666666666665,313.63069410324096L293.2,314.00397970676426L317.6333333333333,314.36438555717467L342.06666666666666,314.6427679538727L366.5,314.87726533412933L390.93333333333334,315.1499397754669L415.3666666666667,315.33254606723784L439.8,315.47629487514496L464.2333333333333,315.6809032201767L488.66666666666663,315.87235500812534L513.1,316.00593931674956L537.5333333333333,316.10856535434726L561.9666666666667,316.2309403896332L586.4,316.3631239414215L610.8333333333334,316.456217622757L635.2666666666667,316.56951863765715L659.7,316.6637137413025L684.1333333333333,316.75310468673706L708.5666666666667,316.83869311809536L733,316.91774704456327L757.4333333333334,317.0120766878128L781.8666666666667,317.08057794570925L806.3000000000001,317.1589733362198L830.7333333333333,317.2152501583099L855.1666666666667,317.2580955505371L879.6,317.32197160720824L904.0333333333334,317.3757758617401L928.4666666666666,317.4123616218567L952.9,317.5056735277176L977.3333333333333,317.5108607053757L1001.7666666666667,317.5696667432785L1026.2,317.64762375354763L1050.6333333333334,317.70952677726746L1075.0666666666666,317.67432310581205L1099.5,317.7725589036942L1123.9333333333334,317.81821675300597L1148.3666666666666,317.8047357559204L1172.8,317.88119480609896L1197.2333333333333,317.91014592647554L1221.6666666666667,317.9404932975769L1246.1,317.98390645980834L1270.5333333333333,318.00215299129485L1294.9666666666667,318.039315533638L1319.4,318.0748745441437" style="fill: none;" fill="none"></path></g><g><path stroke="rgb(0, 119, 187)" stroke-width="2px" d="M122.16666666666666,282.8297842025757L146.6,287.95499897003174L171.03333333333333,294.7908777236938L195.46666666666667,297.0694327354431L219.9,293.89385776519777L244.33333333333331,292.6727479934693L268.76666666666665,292.1538654327393L293.2,289.3094793319702L317.6333333333333,272.68907203674314L342.06666666666666,277.18782920837407L366.5,279.8268241882324L390.93333333333334,288.31857004165647L415.3666666666667,231.16627235412597L439.8,285.2165605545044L464.2333333333333,213.77488746643067L488.66666666666663,277.79161205291746L513.1,279.06856670379636L537.5333333333333,255.69940567016602L561.9666666666667,272.8514156341553L586.4,251.6078104019165L610.8333333333334,249.9347557067871L635.2666666666667,262.75555858612057L659.7,257.1943016052246L684.1333333333333,265.1515016555786L708.5666666666667,265.7536880493164L733,260.47112503051756L757.4333333333334,216.20643653869627L781.8666666666667,233.49429931640623L806.3000000000001,249.81078872680663L830.7333333333333,231.81833496093753L855.1666666666667,197.83477935791015L879.6,246.50904006958007L904.0333333333334,244.84345264434813L928.4666666666666,222.90453643798827L952.9,215.81243247985842L977.3333333333333,141.80409393310546L1001.7666666666667,156.26519851684571L1026.2,154.16213722229006L1050.6333333333334,114.06723403930665L1075.0666666666666,172.5306941986084L1099.5,166.364603805542L1123.9333333333334,156.76543350219725L1148.3666666666666,158.08385467529297L1172.8,177.26112213134766L1197.2333333333333,-11.073353576660189L1221.6666666666667,112.33173751831053L1246.1,102.98042907714846L1270.5333333333333,114.07695693969727L1294.9666666666667,122.83875274658203L1319.4,58.60746002197267" style="fill: none;" fill="none"></path></g><g><path stroke="rgb(255, 112, 67)" stroke-width="2px" d="M122.16666666666666,278.19095649719236L146.6,286.6696346282959L171.03333333333333,292.9794467926025L195.46666666666667,297.55770206451416L219.9,296.66555643081665L244.33333333333331,289.4708985328674L268.76666666666665,285.2249573707581L293.2,279.54213066101073L317.6333333333333,277.26913490295414L342.06666666666666,272.78676452636716L366.5,267.37016143798826L390.93333333333334,265.64133911132814L415.3666666666667,258.4518774032593L439.8,252.7901573181152L464.2333333333333,248.66088581085208L488.66666666666663,240.75249595642092L513.1,239.0595937728882L537.5333333333333,235.02666549682618L561.9666666666667,226.3881465911865L586.4,217.62728805541994L610.8333333333334,216.22350311279297L635.2666666666667,210.66336364746095L659.7,202.82717971801756L684.1333333333333,197.43545036315916L708.5666666666667,192.5002544403076L733,178.98572158813477L757.4333333333334,172.61951866149903L781.8666666666667,165.04628562927246L806.3000000000001,163.36018638610838L830.7333333333333,155.85890693664552L855.1666666666667,145.95558700561526L879.6,140.45409393310547L904.0333333333334,132.02850036621095L928.4666666666666,128.23455047607422L952.9,118.61701583862305L977.3333333333333,114.11432418823244L1001.7666666666667,105.48131561279295L1026.2,97.44171295166018L1050.6333333333334,96.74687576293945L1075.0666666666666,86.57052154541016L1099.5,81.23341140747073L1123.9333333333334,79.26975631713867L1148.3666666666666,71.15181427001951L1172.8,69.78502578735352L1197.2333333333333,64.22966537475585L1221.6666666666667,58.455127716064446L1246.1,50.55327301025391L1270.5333333333333,55.30579376220704L1294.9666666666667,48.033146667480466L1319.4,42.05490188598631" style="fill: none;" fill="none"></path></g></g></g></g></g></g><g transform="translate(30, 378)" clip-path="url(#clip_1)"><clipPath id="clip_1"><rect width="1466" height="22"></rect></clipPath><g><g><line x1="0" y1="0" x2="0" y2="5" style="visibility: inherit;" fill="rgb(0, 0, 0)" stroke="rgb(204, 204, 204)" stroke-width="1px"></line><line x1="122.16666666666666" y1="0" x2="122.16666666666666" y2="5" style="visibility: inherit;" fill="rgb(0, 0, 0)" stroke="rgb(204, 204, 204)" stroke-width="1px"></line><line x1="244.33333333333331" y1="0" x2="244.33333333333331" y2="5" style="visibility: inherit;" fill="rgb(0, 0, 0)" stroke="rgb(204, 204, 204)" stroke-width="1px"></line><line x1="366.5" y1="0" x2="366.5" y2="5" style="visibility: inherit;" fill="rgb(0, 0, 0)" stroke="rgb(204, 204, 204)" stroke-width="1px"></line><line x1="488.66666666666663" y1="0" x2="488.66666666666663" y2="5" style="visibility: inherit;" fill="rgb(0, 0, 0)" stroke="rgb(204, 204, 204)" stroke-width="1px"></line><line x1="610.8333333333334" y1="0" x2="610.8333333333334" y2="5" style="visibility: inherit;" fill="rgb(0, 0, 0)" stroke="rgb(204, 204, 204)" stroke-width="1px"></line><line x1="733" y1="0" x2="733" y2="5" style="visibility: inherit;" fill="rgb(0, 0, 0)" stroke="rgb(204, 204, 204)" stroke-width="1px"></line><line x1="855.1666666666667" y1="0" x2="855.1666666666667" y2="5" style="visibility: inherit;" fill="rgb(0, 0, 0)" stroke="rgb(204, 204, 204)" stroke-width="1px"></line><line x1="977.3333333333333" y1="0" x2="977.3333333333333" y2="5" style="visibility: inherit;" fill="rgb(0, 0, 0)" stroke="rgb(204, 204, 204)" stroke-width="1px"></line><line x1="1099.5" y1="0" x2="1099.5" y2="5" style="visibility: inherit;" fill="rgb(0, 0, 0)" stroke="rgb(204, 204, 204)" stroke-width="1px"></line><line x1="1221.6666666666667" y1="0" x2="1221.6666666666667" y2="5" style="visibility: inherit;" fill="rgb(0, 0, 0)" stroke="rgb(204, 204, 204)" stroke-width="1px"></line><line x1="1343.8333333333333" y1="0" x2="1343.8333333333333" y2="5" style="visibility: inherit;" fill="rgb(0, 0, 0)" stroke="rgb(204, 204, 204)" stroke-width="1px"></line><line x1="1466" y1="0" x2="1466" y2="5" style="visibility: inherit;" fill="rgb(0, 0, 0)" stroke="rgb(204, 204, 204)" stroke-width="1px"></line></g><g transform="translate(0, 8)"><text x="0" y="0" dx="0em" dy="0.95em" style="text-anchor: middle; visibility: hidden; font-family: Roboto, sans-serif; font-size: 12px; font-weight: 200;" fill="rgb(50, 49, 63)" stroke="none" stroke-width="1px">-5</text><text x="122.16666666666666" y="0" dx="0em" dy="0.95em" style="text-anchor: middle; visibility: inherit; font-family: Roboto, sans-serif; font-size: 12px; font-weight: 200;" fill="rgb(50, 49, 63)" stroke="none" stroke-width="1px">0</text><text x="244.33333333333331" y="0" dx="0em" dy="0.95em" style="text-anchor: middle; visibility: inherit; font-family: Roboto, sans-serif; font-size: 12px; font-weight: 200;" fill="rgb(50, 49, 63)" stroke="none" stroke-width="1px">5</text><text x="366.5" y="0" dx="0em" dy="0.95em" style="text-anchor: middle; visibility: inherit; font-family: Roboto, sans-serif; font-size: 12px; font-weight: 200;" fill="rgb(50, 49, 63)" stroke="none" stroke-width="1px">10</text><text x="488.66666666666663" y="0" dx="0em" dy="0.95em" style="text-anchor: middle; visibility: inherit; font-family: Roboto, sans-serif; font-size: 12px; font-weight: 200;" fill="rgb(50, 49, 63)" stroke="none" stroke-width="1px">15</text><text x="610.8333333333334" y="0" dx="0em" dy="0.95em" style="text-anchor: middle; visibility: inherit; font-family: Roboto, sans-serif; font-size: 12px; font-weight: 200;" fill="rgb(50, 49, 63)" stroke="none" stroke-width="1px">20</text><text x="733" y="0" dx="0em" dy="0.95em" style="text-anchor: middle; visibility: inherit; font-family: Roboto, sans-serif; font-size: 12px; font-weight: 200;" fill="rgb(50, 49, 63)" stroke="none" stroke-width="1px">25</text><text x="855.1666666666667" y="0" dx="0em" dy="0.95em" style="text-anchor: middle; visibility: inherit; font-family: Roboto, sans-serif; font-size: 12px; font-weight: 200;" fill="rgb(50, 49, 63)" stroke="none" stroke-width="1px">30</text><text x="977.3333333333333" y="0" dx="0em" dy="0.95em" style="text-anchor: middle; visibility: inherit; font-family: Roboto, sans-serif; font-size: 12px; font-weight: 200;" fill="rgb(50, 49, 63)" stroke="none" stroke-width="1px">35</text><text x="1099.5" y="0" dx="0em" dy="0.95em" style="text-anchor: middle; visibility: inherit; font-family: Roboto, sans-serif; font-size: 12px; font-weight: 200;" fill="rgb(50, 49, 63)" stroke="none" stroke-width="1px">40</text><text x="1221.6666666666667" y="0" dx="0em" dy="0.95em" style="text-anchor: middle; visibility: inherit; font-family: Roboto, sans-serif; font-size: 12px; font-weight: 200;" fill="rgb(50, 49, 63)" stroke="none" stroke-width="1px">45</text><text x="1343.8333333333333" y="0" dx="0em" dy="0.95em" style="text-anchor: middle; visibility: inherit; font-family: Roboto, sans-serif; font-size: 12px; font-weight: 200;" fill="rgb(50, 49, 63)" stroke="none" stroke-width="1px">50</text><text x="1466" y="0" dx="0em" dy="0.95em" style="text-anchor: middle; visibility: hidden; font-family: Roboto, sans-serif; font-size: 12px; font-weight: 200;" fill="rgb(50, 49, 63)" stroke="none" stroke-width="1px">55</text></g><line x1="0" y1="0" x2="1466" y2="0" fill="rgb(0, 0, 0)" stroke="rgb(204, 204, 204)" stroke-width="1px"></line></g></g></g></g></svg>